<svg version="1.0" xmlns="http://www.w3.org/2000/svg" width="346.667" height="346.667" viewBox="0 0 260 260"><path d="M110.5 1.4C81 6.3 56.2 19.4 35.7 41 18.6 59 7.8 79.8 2.3 105.3c-2.5 11.6-2.5 38 .1 49.7 5.9 27.2 16.7 47.2 36.1 66.5 19.3 19.4 39.7 30.4 66.8 36.2 11.4 2.5 38 2.5 49.4 0 27.3-5.8 47.4-16.7 66.8-36.2 19.5-19.4 30.4-39.5 36.2-66.8 2.5-11.4 2.5-38 0-49.4-5.8-27.3-16.8-47.5-36.1-66.9-19.1-19-39.4-30.1-65.9-35.9-9.9-2.2-35-2.8-45.2-1.1zm40.1 10.1c30.3 5.3 57.6 22.3 76.2 47.3 31.1 41.9 31.1 100.5 0 142.4C179 265.6 83.3 266.5 34.5 203c-9.9-13-16.9-27.3-21.2-43.9-3.1-11.9-4.2-33.6-2.4-46.1 7.5-51 47.3-92.3 97.7-101.4 10.7-1.9 31.1-2 42-.1z"/><path d="M117 21.1c-58.1 6.7-102.1 61.2-96.1 119 3.9 37.2 24.7 68.5 57.4 86.4 3.7 2.1 7.1 3.4 7.5 3.1.9-1 2.2-27.3 1.5-31.6-.9-5.5-2.8-8.4-8.8-13.5-3.4-2.9-5.8-5.9-6.3-7.9-.5-1.8-.6-16.6-.1-34.1.8-33 1.4-37.9 7.4-58.6 3.1-10.9 9.7-27.8 12.6-32.5 3-5 8.9-9.8 10.3-8.4.8.8 1.3 28.1 1.7 95.3.4 51.8 1 95.2 1.4 96.4.8 2.6 2.1 2.9 15 4.4 6.1.6 12.5.7 16.5.2l6.5-.8 1.7-30.5c.9-16.8 1.7-32.5 1.7-35l.1-4.5-4.9-1.8c-7-2.4-15.7-10.6-17.2-16-2-7.2-.3-37.3 4.2-75l1.2-9.7h6.7v74h7V66h7v74h7V66h8v74.1l3.3-.3 3.2-.3.3-36.8.2-36.7h2.4c2.2 0 2.4.5 3.5 9.2 4.5 36.1 6.3 69.6 4.2 76-1.6 4.9-10.4 13-16.6 15.3-2.8 1-5.1 2-5.3 2.1-.4.2 2.9 64.7 3.3 65.2.7.8 16-6.3 23.6-11 10.2-6.3 24.9-20.3 31.8-30.3 47.1-68 4.9-161.3-77.4-171.4-10.1-1.2-14.6-1.2-25.5 0z"/></svg>